<svg width="1440" height="1024" viewBox="0 0 1440 1024" fill="none" xmlns="http://www.w3.org/2000/svg">
<g clip-path="url(#clip0_385_394)">
<rect width="1440" height="1024" fill="#E7EEED"/>
<path d="M1091.56 395.704C1021.49 372.002 960.458 313.312 948.026 240.702C935.593 168.092 981.555 85.6998 1053.89 69.8987C1088.17 62.3743 1125.09 69.1462 1157.49 56.731C1218.9 33.0293 1240 -46.729 1296.89 -80.2124C1351.51 -112.191 1426.86 -89.2416 1467.55 -40.7095C1508.24 7.82267 1520.29 75.1657 1517.65 138.37C1513.89 231.672 1474.33 332.123 1389.56 371.249C1318.74 404.733 1168.04 414.138 1091.56 395.704Z" fill="#D9E1E0"/>
<path d="M150.678 1117.1C91.1398 1096.95 39.2842 1047.07 28.721 985.346C18.1579 923.628 57.2096 853.595 118.668 840.164C147.797 833.768 179.166 839.524 206.695 828.971C258.87 808.825 276.796 741.03 325.13 712.569C371.544 685.388 435.563 704.895 470.134 746.147C504.704 787.399 514.947 844.641 512.706 898.365C509.505 977.672 475.895 1063.05 403.874 1096.31C343.696 1124.77 215.657 1132.77 150.678 1117.1Z" fill="#8295C7"/>
<path d="M1175.68 1035.1C1116.14 1014.95 1064.28 965.065 1053.72 903.346C1043.16 841.628 1082.21 771.595 1143.67 758.164C1172.8 751.768 1204.17 757.524 1231.69 746.971C1283.87 726.825 1301.8 659.03 1350.13 630.569C1396.54 603.388 1460.56 622.895 1495.13 664.147C1529.7 705.399 1539.95 762.641 1537.71 816.365C1534.51 895.672 1500.9 981.054 1428.87 1014.31C1368.7 1042.77 1240.66 1050.77 1175.68 1035.1Z" fill="#8295C7"/>
<path d="M-9.69515 202.366C-52.2047 188.003 -89.2292 152.437 -96.7712 108.435C-104.313 64.4335 -76.4306 14.5041 -32.5498 4.9286C-11.7521 0.368832 10.6454 4.47262 30.3004 -3.05099C67.5534 -17.4142 80.352 -65.7478 114.862 -86.0387C148.002 -105.418 193.711 -91.5104 218.394 -62.0999C243.077 -32.6895 250.39 8.12043 248.79 46.4224C246.505 102.964 222.508 163.836 171.085 187.547C128.118 207.838 36.6997 213.538 -9.69515 202.366Z" fill="#D9E1E0"/>
<path d="M994.563 711.158C973.733 749.576 916.18 766.014 877.552 745.777C839.14 725.409 828.097 666.174 848.927 627.757C869.627 589.125 917.783 574.282 956.065 594.437C994.477 614.805 1015.26 672.527 994.563 711.158Z" fill="#D9E1E0"/>
<path d="M193.404 240.903C176.636 271.829 130.306 285.063 99.2094 268.772C68.2875 252.375 59.398 204.691 76.1663 173.764C92.8301 142.666 131.596 130.717 162.413 146.942C193.335 163.338 210.068 209.805 193.404 240.903Z" fill="#8295C7" fill-opacity="0.486275"/>
<path d="M574.404 240.903C557.636 271.829 511.306 285.063 480.209 268.772C449.288 252.375 440.398 204.691 457.166 173.764C473.83 142.666 512.596 130.717 543.413 146.942C574.335 163.338 591.068 209.805 574.404 240.903Z" fill="#8295C7"/>
<path d="M50.5634 687.158C29.7333 725.576 -27.8198 742.014 -66.4484 721.777C-104.86 701.409 -115.903 642.174 -95.0731 603.757C-74.373 565.125 -26.2171 550.282 12.065 570.437C50.477 590.805 71.2636 648.527 50.5634 687.158Z" fill="#D9E1E0"/>
</g>
<rect x="0.5" y="0.5" width="1439" height="1023" stroke="black"/>
<defs>
<clipPath id="clip0_385_394">
<rect width="1440" height="1024" fill="white"/>
</clipPath>
</defs>
</svg>
